<svg width="1000" height="1000" viewBox="0 0 1000 1000" fill="none" xmlns="http://www.w3.org/2000/svg">
<path d="M808.095 598.551C808.095 700.992 785.531 775.709 740.403 822.701C696.216 868.753 613.951 891.779 493.61 891.779C373.27 891.779 279.253 864.524 211.561 810.014C197.458 742.345 190.407 674.677 190.407 607.009C190.407 539.341 199.809 475.902 218.612 416.692C238.356 356.543 262.8 305.322 291.945 263.029C353.056 176.564 407.585 121.584 455.533 98.0881C545.789 144.14 625.233 206.639 693.865 285.585C770.018 372.051 808.095 476.372 808.095 598.551ZM644.506 560.487C644.506 471.203 625.703 389.437 588.096 315.19C510.063 356.543 445.661 419.512 394.893 504.097C344.124 588.682 318.739 674.207 318.739 760.672C348.825 766.311 392.072 769.131 448.482 769.131C504.892 769.131 562.712 759.263 621.942 739.526C636.985 682.196 644.506 622.516 644.506 560.487Z" fill="#2196F3"/>
</svg>
